<?xml version="1.0" encoding="UTF-8" standalone="no"?>
<!DOCTYPE svg PUBLIC "-//W3C//DTD SVG 1.1//EN"
 "http://www.w3.org/Graphics/SVG/1.1/DTD/svg11.dtd">
<!-- Generated by graphviz version 9.0.0 (20230911.1827)
 -->
<!-- Pages: 1 -->
<svg width="576pt" height="71pt"
 viewBox="0.00 0.00 576.00 71.35" xmlns="http://www.w3.org/2000/svg" xmlns:xlink="http://www.w3.org/1999/xlink">
<g id="graph0" class="graph" transform="scale(0.61509 0.61509) rotate(0) translate(4 112)">
<polygon fill="white" stroke="none" points="-4,4 -4,-112 932.45,-112 932.45,4 -4,4"/>
<!-- function_1 -->
<g id="node1" class="node">
<title>function_1</title>
<ellipse fill="lightblue" stroke="lightblue" cx="110.94" cy="-90" rx="110.94" ry="18"/>
<text text-anchor="middle" x="110.94" y="-84.58" font-family="Arial" font-size="14.00">Function: risky_operation</text>
</g>
<!-- function_2 -->
<g id="node2" class="node">
<title>function_2</title>
<ellipse fill="lightblue" stroke="lightblue" cx="359.94" cy="-90" rx="120.42" ry="18"/>
<text text-anchor="middle" x="359.94" y="-84.58" font-family="Arial" font-size="14.00">Function: complex_function</text>
</g>
<!-- if_3 -->
<g id="node3" class="node">
<title>if_3</title>
<polygon fill="orange" stroke="orange" points="120.94,-36 38.85,-18 120.94,0 203.04,-18 120.94,-36"/>
<text text-anchor="middle" x="120.94" y="-12.57" font-family="Arial" font-size="14.00">If statement</text>
</g>
<!-- function_2&#45;&gt;if_3 -->
<g id="edge1" class="edge">
<title>function_2&#45;&gt;if_3</title>
<path fill="none" stroke="black" d="M306.9,-73.46C262.73,-60.53 200.79,-42.39 160.77,-30.66"/>
<polygon fill="black" stroke="black" points="156.19,-29.32 161.62,-28.57 157.42,-29.68 160.99,-30.73 160.99,-30.73 160.99,-30.73 157.42,-29.68 160.36,-32.89 156.19,-29.32"/>
</g>
<!-- for_4 -->
<g id="node4" class="node">
<title>for_4</title>
<polygon fill="orange" stroke="orange" points="282.94,-36 221.31,-18 282.94,0 344.57,-18 282.94,-36"/>
<text text-anchor="middle" x="282.94" y="-12.57" font-family="Arial" font-size="14.00">For loop</text>
</g>
<!-- function_2&#45;&gt;for_4 -->
<g id="edge2" class="edge">
<title>function_2&#45;&gt;for_4</title>
<path fill="none" stroke="black" d="M341.3,-72.05C329.36,-61.2 313.9,-47.14 301.9,-36.23"/>
<polygon fill="black" stroke="black" points="298.22,-32.88 303.43,-34.58 299.16,-33.75 301.91,-36.25 301.91,-36.25 301.91,-36.25 299.16,-33.75 300.4,-37.91 298.22,-32.88"/>
</g>
<!-- while_5 -->
<g id="node5" class="node">
<title>while_5</title>
<polygon fill="orange" stroke="orange" points="437.94,-36 362.91,-18 437.94,0 512.98,-18 437.94,-36"/>
<text text-anchor="middle" x="437.94" y="-12.57" font-family="Arial" font-size="14.00">While loop</text>
</g>
<!-- function_2&#45;&gt;while_5 -->
<g id="edge3" class="edge">
<title>function_2&#45;&gt;while_5</title>
<path fill="none" stroke="black" d="M378.82,-72.05C390.69,-61.41 405.97,-47.7 418.02,-36.88"/>
<polygon fill="black" stroke="black" points="421.73,-33.55 419.51,-38.57 420.77,-34.41 418.01,-36.89 418.01,-36.89 418.01,-36.89 420.77,-34.41 416.5,-35.22 421.73,-33.55"/>
</g>
<!-- try_6 -->
<g id="node6" class="node">
<title>try_6</title>
<polygon fill="orange" stroke="orange" points="597.94,-36 531.37,-18 597.94,0 664.51,-18 597.94,-36"/>
<text text-anchor="middle" x="597.94" y="-12.57" font-family="Arial" font-size="14.00">Try block</text>
</g>
<!-- function_2&#45;&gt;try_6 -->
<g id="edge4" class="edge">
<title>function_2&#45;&gt;try_6</title>
<path fill="none" stroke="black" d="M412.76,-73.46C457.93,-60.18 521.74,-41.41 561.43,-29.74"/>
<polygon fill="black" stroke="black" points="565.94,-28.41 561.78,-31.98 564.71,-28.77 561.15,-29.82 561.15,-29.82 561.15,-29.82 564.71,-28.77 560.51,-27.66 565.94,-28.41"/>
</g>
<!-- async_function_7 -->
<g id="node7" class="node">
<title>async_function_7</title>
<ellipse fill="lightgreen" stroke="lightgreen" cx="634.94" cy="-90" rx="136.89" ry="18"/>
<text text-anchor="middle" x="634.94" y="-84.58" font-family="Arial" font-size="14.00">Async Function: async_function</text>
</g>
<!-- function_8 -->
<g id="node8" class="node">
<title>function_8</title>
<ellipse fill="lightblue" stroke="lightblue" cx="847.94" cy="-18" rx="80.5" ry="18"/>
<text text-anchor="middle" x="847.94" y="-12.57" font-family="Arial" font-size="14.00">Function: method</text>
</g>
<!-- cluster_MyClass -->
<g id="node9" class="node">
<title>cluster_MyClass</title>
<polygon fill="lightgrey" stroke="lightgrey" points="905.82,-108 790.07,-108 790.07,-72 905.82,-72 905.82,-108"/>
<text text-anchor="middle" x="847.94" y="-84.58" font-family="Arial" font-size="14.00">cluster_MyClass</text>
</g>
<!-- cluster_MyClass&#45;&gt;function_8 -->
<g id="edge5" class="edge">
<title>cluster_MyClass&#45;&gt;function_8</title>
<path fill="none" stroke="black" d="M847.94,-71.7C847.94,-62.8 847.94,-51.82 847.94,-42.2"/>
<polygon fill="black" stroke="black" points="847.94,-37.32 850.19,-42.32 847.94,-38.6 847.94,-42.32 847.94,-42.32 847.94,-42.32 847.94,-38.6 845.69,-42.32 847.94,-37.32"/>
</g>
</g>
</svg>
